<svg width="468" height="160" viewBox="0 0 468 160" fill="none" xmlns="http://www.w3.org/2000/svg">
<g clip-path="url(#clip0_3041_50)">
<mask id="mask0_3041_50" style="mask-type:luminance" maskUnits="userSpaceOnUse" x="0" y="0" width="468" height="160">
<path d="M468 0H0V160H468V0Z" fill="white"/>
</mask>
<g mask="url(#mask0_3041_50)">
<path d="M152.548 54.4798C157.147 40.139 154.383 11.4971 145.462 0.929171C144.298 -0.453545 142.107 -0.256015 141.14 1.26497L130.147 18.5292C127.423 21.986 122.528 22.7761 118.857 20.3662C106.936 12.5637 92.6861 8.02053 77.3703 8.02053C62.0545 8.02053 47.8045 12.5637 35.8834 20.3662C32.2124 22.7761 27.3176 21.9662 24.594 18.5292L13.6005 1.26497C12.6334 -0.256015 10.4426 -0.453545 9.27817 0.929171C0.357114 11.4971 -2.40604 40.139 2.19264 54.4798C3.71238 59.2403 4.14659 64.2773 3.23869 69.1958C2.35054 74.0551 1.44264 79.9415 1.44264 84.0106C1.44264 125.966 35.4492 160.001 77.3703 160.001C119.311 160.001 153.298 125.986 153.298 84.0106C153.298 79.9218 152.41 74.0551 151.502 69.1958C150.594 64.2773 151.028 59.2403 152.548 54.4798ZM77.3703 143.013C44.9624 143.013 18.594 116.623 18.594 84.1884C18.594 83.1218 18.6334 82.0748 18.6729 81.0279C19.8571 58.9242 33.2584 40.0205 52.2453 31.0131C59.8637 27.3785 68.39 25.3637 77.3703 25.3637C86.3505 25.3637 94.8769 27.3983 102.515 31.0329C121.502 40.0403 134.903 58.944 136.087 81.0279C136.147 82.0748 136.166 83.1218 136.166 84.1884C136.147 116.623 109.778 143.013 77.3703 143.013Z" fill="white"/>
<path d="M102.83 106.825L87.81 80.7703L74.9218 59.0419C74.6257 58.5283 74.0731 58.2122 73.4613 58.2122H61.1455C60.5336 58.2122 59.981 58.548 59.685 59.0616C59.3889 59.595 59.3889 60.2468 59.7047 60.7604L72.0205 81.5011L55.481 106.746C55.1455 107.259 55.106 107.931 55.4021 108.484C55.6981 109.037 56.2705 109.373 56.8823 109.373H69.2771C69.8494 109.373 70.3823 109.077 70.6981 108.602L79.6389 94.6172L87.6521 108.523C87.9481 109.057 88.5205 109.373 89.1126 109.373H101.33C101.942 109.373 102.494 109.057 102.79 108.523C103.146 107.99 103.146 107.358 102.83 106.825Z" fill="white"/>
<path d="M211.165 47.3276H224.113V118.478H211.165V88.1374H196.521V118.459H183.573V47.3276H196.521V78.2214H211.165V47.3276Z" fill="#FF8D8D"/>
<path d="M264.119 118.459L261.415 103.684H245.863L243.376 118.459H230.429L244.738 47.3284H262.205L277.185 118.479H264.119V118.459ZM247.56 93.8864H259.619L253.422 59.8321L247.56 93.8864Z" fill="#FF8D8D"/>
<path d="M306.021 105.501V90.2715C306.021 89.0666 305.804 88.2567 305.35 87.8419C304.896 87.4271 304.067 87.2295 302.863 87.2295H293.744C286.008 87.2295 282.139 83.4765 282.139 75.9505V58.469C282.139 51.0221 286.185 47.3086 294.297 47.3086H306.692C314.804 47.3086 318.85 51.0221 318.85 58.469V68.3851H305.784V60.2666C305.784 59.0616 305.567 58.2518 305.113 57.837C304.659 57.4221 303.83 57.2246 302.626 57.2246H298.343C297.06 57.2246 296.211 57.4419 295.758 57.837C295.304 58.232 295.086 59.0616 295.086 60.2666V74.5876C295.086 75.7925 295.304 76.6024 295.758 77.0172C296.211 77.432 297.08 77.6295 298.343 77.6295H307.244C315.139 77.6295 319.067 81.3234 319.067 88.6715V107.279C319.067 114.726 314.981 118.44 306.79 118.44H294.613C286.422 118.44 282.336 114.726 282.336 107.279V97.4616H295.284V105.462C295.284 106.667 295.501 107.477 295.955 107.891C296.409 108.306 297.277 108.504 298.54 108.504H302.823C304.027 108.504 304.856 108.306 305.31 107.891C305.784 107.516 306.021 106.706 306.021 105.501Z" fill="#FF8D8D"/>
<path d="M353.665 47.3284H366.613V107.319C366.613 114.765 362.527 118.479 354.336 118.479H340.6C332.409 118.479 328.323 114.765 328.323 107.319V47.3284H341.271V105.501C341.271 106.706 341.488 107.516 341.942 107.931C342.396 108.346 343.225 108.543 344.429 108.543H350.409C351.692 108.543 352.54 108.346 352.994 107.931C353.448 107.516 353.665 106.706 353.665 105.501V47.3284Z" fill="#FF8D8D"/>
<path d="M390.277 90.7259V118.459H377.33V47.3284H403.461C411.652 47.3284 415.738 51.042 415.738 58.4889V79.5654C415.738 85.7284 412.994 89.3432 407.508 90.3901L419.33 118.459H405.356L394.54 90.7259H390.277ZM390.277 57.2444V81.1457H399.633C400.836 81.1457 401.665 80.9482 402.119 80.5333C402.573 80.1185 402.79 79.3086 402.79 78.1037V60.2864C402.79 59.0815 402.573 58.2716 402.119 57.8568C401.665 57.442 400.836 57.2444 399.633 57.2444H390.277Z" fill="#FF8D8D"/>
<path d="M454.935 118.459L452.231 103.684H436.679L434.211 118.459H421.264L435.573 47.3086H453.04L468.021 118.459H454.935ZM438.376 93.8863H450.435L444.238 59.832L438.376 93.8863Z" fill="#FF8D8D"/>
</g>
<path d="M350.724 143V126.672H355.038C355.941 126.672 356.655 126.873 357.181 127.275C357.713 127.677 358.093 128.249 358.322 128.991C358.551 129.733 358.665 130.618 358.665 131.645C358.665 132.634 358.569 133.497 358.377 134.233C358.186 134.963 357.842 135.529 357.348 135.931C356.859 136.333 356.163 136.534 355.26 136.534H353.934V143H350.724ZM353.934 133.602H354.119C354.725 133.602 355.096 133.432 355.232 133.092C355.368 132.752 355.437 132.251 355.437 131.589C355.437 130.97 355.368 130.494 355.232 130.16C355.103 129.82 354.79 129.65 354.295 129.65H353.934V133.602ZM368.824 143V126.672H373.834C374.669 126.672 375.3 126.864 375.726 127.247C376.153 127.624 376.438 128.156 376.58 128.843C376.728 129.523 376.803 130.324 376.803 131.246C376.803 132.136 376.688 132.847 376.459 133.379C376.237 133.911 375.813 134.279 375.188 134.483C375.702 134.589 376.06 134.845 376.265 135.253C376.475 135.655 376.58 136.178 376.58 136.821V143H373.361V136.608C373.361 136.132 373.262 135.838 373.064 135.727C372.872 135.609 372.56 135.55 372.127 135.55V143H368.824ZM372.145 132.721H372.934C373.385 132.721 373.611 132.229 373.611 131.246C373.611 130.609 373.562 130.191 373.463 129.993C373.364 129.795 373.178 129.696 372.906 129.696H372.145V132.721ZM390.895 143.148C389.59 143.148 388.591 142.756 387.899 141.97C387.212 141.179 386.869 140.037 386.869 138.547V130.791C386.869 129.393 387.209 128.333 387.889 127.609C388.576 126.885 389.578 126.523 390.895 126.523C392.213 126.523 393.212 126.885 393.892 127.609C394.578 128.333 394.922 129.393 394.922 130.791V138.547C394.922 140.037 394.575 141.179 393.883 141.97C393.196 142.756 392.2 143.148 390.895 143.148ZM390.923 140.143C391.418 140.143 391.665 139.663 391.665 138.705V130.735C391.665 129.931 391.424 129.529 390.942 129.529C390.397 129.529 390.125 129.941 390.125 130.763V138.723C390.125 139.23 390.187 139.595 390.311 139.818C390.434 140.034 390.639 140.143 390.923 140.143ZM405.359 143V126.672H409.849C411.024 126.672 411.909 127 412.503 127.655C413.096 128.305 413.393 129.257 413.393 130.513V138.157C413.393 139.703 413.121 140.897 412.577 141.738C412.039 142.579 411.092 143 409.738 143H405.359ZM408.643 140.115H409.209C409.809 140.115 410.109 139.824 410.109 139.243V130.819C410.109 130.275 410.035 129.925 409.886 129.771C409.744 129.61 409.45 129.529 409.005 129.529H408.643V140.115ZM427.625 143.148C426.264 143.148 425.262 142.768 424.619 142.007C423.976 141.24 423.654 140.115 423.654 138.63V126.672H426.827V138.5C426.827 138.773 426.843 139.035 426.874 139.289C426.904 139.536 426.976 139.741 427.087 139.901C427.198 140.062 427.378 140.143 427.625 140.143C427.879 140.143 428.061 140.065 428.172 139.911C428.284 139.75 428.352 139.543 428.376 139.289C428.407 139.035 428.423 138.773 428.423 138.5V126.672H431.596V138.63C431.596 140.115 431.274 141.24 430.631 142.007C429.988 142.768 428.986 143.148 427.625 143.148ZM445.772 143.148C444.591 143.148 443.638 142.78 442.914 142.044C442.197 141.308 441.838 140.279 441.838 138.955V131.422C441.838 129.839 442.151 128.626 442.775 127.785C443.406 126.944 444.43 126.523 445.846 126.523C446.619 126.523 447.306 126.666 447.906 126.95C448.512 127.235 448.988 127.661 449.334 128.23C449.681 128.793 449.854 129.505 449.854 130.364V133.185H446.607V130.772C446.607 130.284 446.545 129.956 446.421 129.789C446.298 129.616 446.106 129.529 445.846 129.529C445.543 129.529 445.339 129.641 445.234 129.863C445.129 130.08 445.076 130.37 445.076 130.735V138.909C445.076 139.36 445.141 139.679 445.271 139.864C445.407 140.05 445.599 140.143 445.846 140.143C446.124 140.143 446.319 140.028 446.431 139.799C446.548 139.57 446.607 139.274 446.607 138.909V135.968H449.891V139.057C449.891 140.492 449.529 141.534 448.806 142.184C448.082 142.827 447.071 143.148 445.772 143.148ZM461.507 143V129.808H459.568V126.672H466.711V129.808H464.772V143H461.507Z" fill="#FF5F5F"/>
</g>
<defs>
<clipPath id="clip0_3041_50">
<rect width="468" height="160" fill="white"/>
</clipPath>
</defs>
</svg>
